<svg width="40" height="40" viewBox="0 0 40 40" fill="none" xmlns="http://www.w3.org/2000/svg">
<path fill-rule="evenodd" clip-rule="evenodd" d="M8.3333 5H31.6666C33.5076 5 35 6.49238 35 8.33333V31.6667C35 33.5077 33.5076 35 31.6666 35H8.3333C6.49235 35 4.99997 33.5077 4.99997 31.6667V8.33333C4.99997 6.49238 6.49235 5 8.3333 5ZM13.3333 30C13.7935 30 14.1666 29.6268 14.1666 29.1667V17.5C14.1666 17.0398 13.7935 16.6667 13.3333 16.6667H10.8333C10.3731 16.6667 9.99997 17.0398 9.99997 17.5V29.1667C9.99997 29.6268 10.3731 30 10.8333 30H13.3333ZM12.0833 15C10.7026 15 9.5833 13.8807 9.5833 12.5C9.5833 11.1193 10.7026 10 12.0833 10C13.464 10 14.5833 11.1193 14.5833 12.5C14.5833 13.8807 13.464 15 12.0833 15ZM29.1666 30C29.6268 30 30 29.6268 30 29.1667V21.5C30.0541 18.8513 28.096 16.5909 25.4666 16.2667C23.6283 16.0988 21.8471 16.9573 20.8333 18.5V17.5C20.8333 17.0398 20.4601 16.6667 20 16.6667H17.5C17.0398 16.6667 16.6666 17.0398 16.6666 17.5V29.1667C16.6666 29.6268 17.0398 30 17.5 30H20C20.4601 30 20.8333 29.6268 20.8333 29.1667V22.9167C20.8333 21.536 21.9526 20.4167 23.3333 20.4167C24.714 20.4167 25.8333 21.536 25.8333 22.9167V29.1667C25.8333 29.6268 26.2065 30 26.6666 30H29.1666Z" fill="black"/>
</svg>
