<svg width="26" height="26" viewBox="0 0 26 26" fill="none" xmlns="http://www.w3.org/2000/svg">
<path fill-rule="evenodd" clip-rule="evenodd" d="M5.41665 3.24988H20.5833C21.78 3.24988 22.75 4.21993 22.75 5.41654V20.5832C22.75 21.7799 21.78 22.7499 20.5833 22.7499H5.41665C4.22003 22.7499 3.24998 21.7799 3.24998 20.5832V5.41654C3.24998 4.21993 4.22003 3.24988 5.41665 3.24988ZM8.66665 19.4999C8.9658 19.4999 9.20832 19.2573 9.20832 18.9582V11.3749C9.20832 11.0758 8.9658 10.8332 8.66665 10.8332H7.04165C6.7425 10.8332 6.49998 11.0758 6.49998 11.3749V18.9582C6.49998 19.2573 6.7425 19.4999 7.04165 19.4999H8.66665ZM7.85415 9.74988C6.95669 9.74988 6.22915 9.02234 6.22915 8.12488C6.22915 7.22741 6.95669 6.49988 7.85415 6.49988C8.75162 6.49988 9.47915 7.22741 9.47915 8.12488C9.47915 9.02234 8.75162 9.74988 7.85415 9.74988ZM18.9583 19.4999C19.2574 19.4999 19.5 19.2573 19.5 18.9582V13.9749C19.5352 12.2532 18.2624 10.7839 16.5533 10.5732C15.3584 10.4641 14.2006 11.0221 13.5417 12.0249V11.3749C13.5417 11.0758 13.2991 10.8332 13 10.8332H11.375C11.0759 10.8332 10.8333 11.0758 10.8333 11.3749V18.9582C10.8333 19.2573 11.0759 19.4999 11.375 19.4999H13C13.2991 19.4999 13.5417 19.2573 13.5417 18.9582V14.8957C13.5417 13.9983 14.2692 13.2707 15.1667 13.2707C16.0641 13.2707 16.7917 13.9983 16.7917 14.8957V18.9582C16.7917 19.2573 17.0342 19.4999 17.3333 19.4999H18.9583Z" fill="#007BFF"/>
</svg>
