<svg xmlns="http://www.w3.org/2000/svg" xmlns:xlink="http://www.w3.org/1999/xlink" width="70" zoomAndPan="magnify" viewBox="0 0 52.5 30.000001" height="40" preserveAspectRatio="xMidYMid meet" version="1.0"><defs><g/><clipPath id="7556325b8b"><path d="M 7.496094 25.6875 L 13.210938 25.6875 L 13.210938 27.464844 L 7.496094 27.464844 Z M 7.496094 25.6875 " clip-rule="nonzero"/></clipPath></defs><g fill="#2e2e2e" fill-opacity="1"><g transform="translate(6.232587, 22.01275)"><g><path d="M 16.140625 0 L 13.03125 0 L 5.703125 -10.359375 L 8.484375 -10.359375 C 9.191406 -10.359375 9.828125 -10.40625 10.390625 -10.5 C 10.921875 -10.582031 11.332031 -10.679688 11.625 -10.796875 C 12.238281 -11.078125 12.722656 -11.484375 13.078125 -12.015625 C 13.441406 -12.523438 13.625 -13.0625 13.625 -13.625 C 13.625 -14.175781 13.453125 -14.695312 13.109375 -15.1875 C 12.773438 -15.664062 12.289062 -16.0625 11.65625 -16.375 C 11.03125 -16.675781 10.300781 -16.828125 9.46875 -16.828125 L 4.984375 -16.828125 L 5.046875 0 L 2.515625 0 L 2.515625 -19.3125 L 9.46875 -19.3125 C 10.394531 -19.3125 11.265625 -19.164062 12.078125 -18.875 C 12.890625 -18.570312 13.601562 -18.144531 14.21875 -17.59375 C 14.8125 -17.0625 15.273438 -16.445312 15.609375 -15.75 C 15.921875 -15.0625 16.078125 -14.351562 16.078125 -13.625 C 16.078125 -12.457031 15.722656 -11.40625 15.015625 -10.46875 C 14.421875 -9.675781 13.617188 -9.035156 12.609375 -8.546875 C 11.835938 -8.265625 11.15625 -8.125 10.5625 -8.125 Z M 16.140625 0 "/></g></g></g><g fill="#2e2e2e" fill-opacity="1"><g transform="translate(22.103272, 22.01275)"><g><path d="M 9.9375 -9.671875 L 17.75 0 L 14.546875 0 L 8.421875 -7.5625 L 2.515625 0.46875 L 2.515625 -19.3125 L 5.046875 -19.3125 L 5.046875 -7.125 L 13.953125 -19.3125 L 17 -19.3125 Z M 9.9375 -9.671875 "/></g></g></g><g fill="#2e2e2e" fill-opacity="1"><g transform="translate(39.279216, 22.01275)"><g><path d="M 3.234375 0 C 2.898438 0 2.613281 -0.128906 2.375 -0.390625 C 2.132812 -0.617188 2.015625 -0.90625 2.015625 -1.25 C 2.015625 -1.582031 2.144531 -1.867188 2.40625 -2.109375 C 2.644531 -2.347656 2.921875 -2.46875 3.234375 -2.46875 C 3.566406 -2.46875 3.863281 -2.347656 4.125 -2.109375 C 4.363281 -1.847656 4.484375 -1.5625 4.484375 -1.25 C 4.484375 -0.90625 4.363281 -0.617188 4.125 -0.390625 C 3.863281 -0.128906 3.566406 0 3.234375 0 Z M 3.234375 0 "/></g></g></g><g clip-path="url(#7556325b8b)"><path fill="#2e2e2e" d="M 7.496094 25.6875 L 13.214844 25.6875 L 13.214844 27.464844 L 7.496094 27.464844 Z M 7.496094 25.6875 " fill-opacity="1" fill-rule="nonzero"/></g><g fill="#2e2e2e" fill-opacity="1"><g transform="translate(14.81401, 27.31802)"><g><path d="M 0.21875 0 L 0.21875 -1.78125 L 0.921875 -1.78125 C 1.109375 -1.78125 1.269531 -1.742188 1.40625 -1.671875 C 1.550781 -1.597656 1.660156 -1.492188 1.734375 -1.359375 C 1.816406 -1.222656 1.859375 -1.066406 1.859375 -0.890625 C 1.859375 -0.710938 1.816406 -0.554688 1.734375 -0.421875 C 1.660156 -0.285156 1.550781 -0.179688 1.40625 -0.109375 C 1.269531 -0.0351562 1.109375 0 0.921875 0 Z M 0.625 -0.375 L 0.90625 -0.375 C 1.007812 -0.375 1.101562 -0.394531 1.1875 -0.4375 C 1.269531 -0.476562 1.332031 -0.535156 1.375 -0.609375 C 1.414062 -0.691406 1.4375 -0.785156 1.4375 -0.890625 C 1.4375 -0.992188 1.414062 -1.082031 1.375 -1.15625 C 1.332031 -1.238281 1.269531 -1.300781 1.1875 -1.34375 C 1.101562 -1.382812 1.007812 -1.40625 0.90625 -1.40625 L 0.625 -1.40625 Z M 0.625 -0.375 "/></g></g></g><g fill="#2e2e2e" fill-opacity="1"><g transform="translate(17.398118, 27.31802)"><g><path d="M 0.21875 0 L 0.21875 -1.78125 L 1.390625 -1.78125 L 1.390625 -1.4375 L 0.609375 -1.4375 L 0.609375 -1.078125 L 1.3125 -1.078125 L 1.3125 -0.734375 L 0.609375 -0.734375 L 0.609375 -0.34375 L 1.40625 -0.34375 L 1.40625 0 Z M 0.21875 0 "/></g></g></g><g fill="#2e2e2e" fill-opacity="1"><g transform="translate(19.559602, 27.31802)"><g><path d="M 0.828125 0.03125 C 0.679688 0.03125 0.550781 0.0078125 0.4375 -0.03125 C 0.332031 -0.0820312 0.25 -0.15625 0.1875 -0.25 C 0.132812 -0.34375 0.109375 -0.445312 0.109375 -0.5625 L 0.515625 -0.5625 C 0.515625 -0.476562 0.539062 -0.410156 0.59375 -0.359375 C 0.65625 -0.316406 0.734375 -0.296875 0.828125 -0.296875 C 0.910156 -0.296875 0.976562 -0.3125 1.03125 -0.34375 C 1.082031 -0.375 1.109375 -0.421875 1.109375 -0.484375 C 1.109375 -0.546875 1.078125 -0.597656 1.015625 -0.640625 C 0.953125 -0.679688 0.859375 -0.710938 0.734375 -0.734375 C 0.523438 -0.785156 0.367188 -0.851562 0.265625 -0.9375 C 0.171875 -1.03125 0.125 -1.148438 0.125 -1.296875 C 0.125 -1.453125 0.179688 -1.578125 0.296875 -1.671875 C 0.421875 -1.765625 0.585938 -1.8125 0.796875 -1.8125 C 0.929688 -1.8125 1.050781 -1.785156 1.15625 -1.734375 C 1.257812 -1.691406 1.335938 -1.625 1.390625 -1.53125 C 1.453125 -1.445312 1.484375 -1.347656 1.484375 -1.234375 L 1.09375 -1.234375 C 1.09375 -1.304688 1.066406 -1.363281 1.015625 -1.40625 C 0.960938 -1.457031 0.890625 -1.484375 0.796875 -1.484375 C 0.710938 -1.484375 0.644531 -1.46875 0.59375 -1.4375 C 0.539062 -1.40625 0.515625 -1.359375 0.515625 -1.296875 C 0.515625 -1.242188 0.539062 -1.195312 0.59375 -1.15625 C 0.65625 -1.125 0.753906 -1.09375 0.890625 -1.0625 C 1.109375 -1.007812 1.265625 -0.9375 1.359375 -0.84375 C 1.460938 -0.757812 1.515625 -0.644531 1.515625 -0.5 C 1.515625 -0.332031 1.453125 -0.203125 1.328125 -0.109375 C 1.210938 -0.015625 1.046875 0.03125 0.828125 0.03125 Z M 0.828125 0.03125 "/></g></g></g><g fill="#2e2e2e" fill-opacity="1"><g transform="translate(21.810193, 27.31802)"><g><path d="M 0.21875 0 L 0.21875 -1.78125 L 0.625 -1.78125 L 0.625 0 Z M 0.21875 0 "/></g></g></g><g fill="#2e2e2e" fill-opacity="1"><g transform="translate(23.261364, 27.31802)"><g><path d="M 1.046875 0.03125 C 0.859375 0.03125 0.691406 -0.00390625 0.546875 -0.078125 C 0.410156 -0.160156 0.300781 -0.269531 0.21875 -0.40625 C 0.144531 -0.550781 0.109375 -0.710938 0.109375 -0.890625 C 0.109375 -1.066406 0.144531 -1.222656 0.21875 -1.359375 C 0.300781 -1.503906 0.410156 -1.613281 0.546875 -1.6875 C 0.691406 -1.769531 0.851562 -1.8125 1.03125 -1.8125 C 1.175781 -1.8125 1.3125 -1.785156 1.4375 -1.734375 C 1.5625 -1.691406 1.664062 -1.625 1.75 -1.53125 C 1.832031 -1.4375 1.894531 -1.328125 1.9375 -1.203125 L 1.5 -1.203125 C 1.457031 -1.273438 1.394531 -1.332031 1.3125 -1.375 C 1.226562 -1.425781 1.140625 -1.453125 1.046875 -1.453125 C 0.941406 -1.453125 0.847656 -1.425781 0.765625 -1.375 C 0.691406 -1.320312 0.628906 -1.253906 0.578125 -1.171875 C 0.535156 -1.085938 0.515625 -0.992188 0.515625 -0.890625 C 0.515625 -0.785156 0.535156 -0.691406 0.578125 -0.609375 C 0.617188 -0.523438 0.679688 -0.457031 0.765625 -0.40625 C 0.847656 -0.363281 0.941406 -0.34375 1.046875 -0.34375 C 1.179688 -0.34375 1.289062 -0.375 1.375 -0.4375 C 1.457031 -0.5 1.515625 -0.585938 1.546875 -0.703125 L 0.96875 -0.703125 L 0.96875 -1.015625 L 1.96875 -1.015625 C 1.976562 -0.859375 1.960938 -0.71875 1.921875 -0.59375 C 1.878906 -0.46875 1.816406 -0.351562 1.734375 -0.25 C 1.660156 -0.15625 1.5625 -0.0820312 1.4375 -0.03125 C 1.320312 0.0078125 1.191406 0.03125 1.046875 0.03125 Z M 1.046875 0.03125 "/></g></g></g><g fill="#2e2e2e" fill-opacity="1"><g transform="translate(25.957493, 27.31802)"><g><path d="M 0.21875 0 L 0.21875 -1.78125 L 0.5625 -1.78125 L 1.34375 -0.703125 L 1.34375 -1.78125 L 1.75 -1.78125 L 1.75 0 L 1.40625 0 L 0.609375 -1.09375 L 0.609375 0 Z M 0.21875 0 "/></g></g></g><g fill="#2e2e2e" fill-opacity="1"><g transform="translate(28.536509, 27.31802)"><g/></g></g><g fill="#2e2e2e" fill-opacity="1"><g transform="translate(29.753457, 27.31802)"><g><path d="M 0.828125 0.03125 C 0.679688 0.03125 0.550781 0.0078125 0.4375 -0.03125 C 0.332031 -0.0820312 0.25 -0.15625 0.1875 -0.25 C 0.132812 -0.34375 0.109375 -0.445312 0.109375 -0.5625 L 0.515625 -0.5625 C 0.515625 -0.476562 0.539062 -0.410156 0.59375 -0.359375 C 0.65625 -0.316406 0.734375 -0.296875 0.828125 -0.296875 C 0.910156 -0.296875 0.976562 -0.3125 1.03125 -0.34375 C 1.082031 -0.375 1.109375 -0.421875 1.109375 -0.484375 C 1.109375 -0.546875 1.078125 -0.597656 1.015625 -0.640625 C 0.953125 -0.679688 0.859375 -0.710938 0.734375 -0.734375 C 0.523438 -0.785156 0.367188 -0.851562 0.265625 -0.9375 C 0.171875 -1.03125 0.125 -1.148438 0.125 -1.296875 C 0.125 -1.453125 0.179688 -1.578125 0.296875 -1.671875 C 0.421875 -1.765625 0.585938 -1.8125 0.796875 -1.8125 C 0.929688 -1.8125 1.050781 -1.785156 1.15625 -1.734375 C 1.257812 -1.691406 1.335938 -1.625 1.390625 -1.53125 C 1.453125 -1.445312 1.484375 -1.347656 1.484375 -1.234375 L 1.09375 -1.234375 C 1.09375 -1.304688 1.066406 -1.363281 1.015625 -1.40625 C 0.960938 -1.457031 0.890625 -1.484375 0.796875 -1.484375 C 0.710938 -1.484375 0.644531 -1.46875 0.59375 -1.4375 C 0.539062 -1.40625 0.515625 -1.359375 0.515625 -1.296875 C 0.515625 -1.242188 0.539062 -1.195312 0.59375 -1.15625 C 0.65625 -1.125 0.753906 -1.09375 0.890625 -1.0625 C 1.109375 -1.007812 1.265625 -0.9375 1.359375 -0.84375 C 1.460938 -0.757812 1.515625 -0.644531 1.515625 -0.5 C 1.515625 -0.332031 1.453125 -0.203125 1.328125 -0.109375 C 1.210938 -0.015625 1.046875 0.03125 0.828125 0.03125 Z M 0.828125 0.03125 "/></g></g></g><g fill="#2e2e2e" fill-opacity="1"><g transform="translate(32.004047, 27.31802)"><g><path d="M 0.640625 0 L 0.640625 -1.40625 L 0.078125 -1.40625 L 0.078125 -1.78125 L 1.609375 -1.78125 L 1.609375 -1.40625 L 1.046875 -1.40625 L 1.046875 0 Z M 0.640625 0 "/></g></g></g><g fill="#2e2e2e" fill-opacity="1"><g transform="translate(34.310649, 27.31802)"><g><path d="M 0.9375 0.03125 C 0.78125 0.03125 0.644531 0 0.53125 -0.0625 C 0.425781 -0.125 0.34375 -0.210938 0.28125 -0.328125 C 0.226562 -0.441406 0.203125 -0.578125 0.203125 -0.734375 L 0.203125 -1.78125 L 0.59375 -1.78125 L 0.59375 -0.765625 C 0.59375 -0.484375 0.707031 -0.34375 0.9375 -0.34375 C 1.164062 -0.34375 1.28125 -0.484375 1.28125 -0.765625 L 1.28125 -1.78125 L 1.6875 -1.78125 L 1.6875 -0.734375 C 1.6875 -0.578125 1.65625 -0.441406 1.59375 -0.328125 C 1.53125 -0.210938 1.441406 -0.125 1.328125 -0.0625 C 1.222656 0 1.09375 0.03125 0.9375 0.03125 Z M 0.9375 0.03125 "/></g></g></g><g fill="#2e2e2e" fill-opacity="1"><g transform="translate(36.813288, 27.31802)"><g><path d="M 0.21875 0 L 0.21875 -1.78125 L 0.921875 -1.78125 C 1.109375 -1.78125 1.269531 -1.742188 1.40625 -1.671875 C 1.550781 -1.597656 1.660156 -1.492188 1.734375 -1.359375 C 1.816406 -1.222656 1.859375 -1.066406 1.859375 -0.890625 C 1.859375 -0.710938 1.816406 -0.554688 1.734375 -0.421875 C 1.660156 -0.285156 1.550781 -0.179688 1.40625 -0.109375 C 1.269531 -0.0351562 1.109375 0 0.921875 0 Z M 0.625 -0.375 L 0.90625 -0.375 C 1.007812 -0.375 1.101562 -0.394531 1.1875 -0.4375 C 1.269531 -0.476562 1.332031 -0.535156 1.375 -0.609375 C 1.414062 -0.691406 1.4375 -0.785156 1.4375 -0.890625 C 1.4375 -0.992188 1.414062 -1.082031 1.375 -1.15625 C 1.332031 -1.238281 1.269531 -1.300781 1.1875 -1.34375 C 1.101562 -1.382812 1.007812 -1.40625 0.90625 -1.40625 L 0.625 -1.40625 Z M 0.625 -0.375 "/></g></g></g><g fill="#2e2e2e" fill-opacity="1"><g transform="translate(39.397396, 27.31802)"><g><path d="M 0.21875 0 L 0.21875 -1.78125 L 0.625 -1.78125 L 0.625 0 Z M 0.21875 0 "/></g></g></g><g fill="#2e2e2e" fill-opacity="1"><g transform="translate(40.848568, 27.31802)"><g><path d="M 1.0625 0.03125 C 0.875 0.03125 0.707031 -0.00390625 0.5625 -0.078125 C 0.414062 -0.160156 0.300781 -0.269531 0.21875 -0.40625 C 0.144531 -0.550781 0.109375 -0.710938 0.109375 -0.890625 C 0.109375 -1.066406 0.144531 -1.222656 0.21875 -1.359375 C 0.300781 -1.503906 0.414062 -1.613281 0.5625 -1.6875 C 0.707031 -1.769531 0.875 -1.8125 1.0625 -1.8125 C 1.25 -1.8125 1.410156 -1.769531 1.546875 -1.6875 C 1.691406 -1.613281 1.804688 -1.503906 1.890625 -1.359375 C 1.972656 -1.222656 2.015625 -1.066406 2.015625 -0.890625 C 2.015625 -0.710938 1.972656 -0.550781 1.890625 -0.40625 C 1.804688 -0.269531 1.691406 -0.160156 1.546875 -0.078125 C 1.410156 -0.00390625 1.25 0.03125 1.0625 0.03125 Z M 0.515625 -0.890625 C 0.515625 -0.785156 0.535156 -0.691406 0.578125 -0.609375 C 0.628906 -0.523438 0.695312 -0.457031 0.78125 -0.40625 C 0.863281 -0.363281 0.957031 -0.34375 1.0625 -0.34375 C 1.164062 -0.34375 1.257812 -0.363281 1.34375 -0.40625 C 1.425781 -0.457031 1.488281 -0.523438 1.53125 -0.609375 C 1.570312 -0.691406 1.59375 -0.785156 1.59375 -0.890625 C 1.59375 -0.992188 1.570312 -1.085938 1.53125 -1.171875 C 1.488281 -1.253906 1.425781 -1.316406 1.34375 -1.359375 C 1.257812 -1.410156 1.164062 -1.4375 1.0625 -1.4375 C 0.957031 -1.4375 0.863281 -1.410156 0.78125 -1.359375 C 0.695312 -1.316406 0.628906 -1.253906 0.578125 -1.171875 C 0.535156 -1.085938 0.515625 -0.992188 0.515625 -0.890625 Z M 0.515625 -0.890625 "/></g></g></g></svg>