<svg xmlns="http://www.w3.org/2000/svg" xmlns:xlink="http://www.w3.org/1999/xlink" width="100" zoomAndPan="magnify" viewBox="0 0 75 60" height="80" preserveAspectRatio="xMidYMid meet" version="1.0"><defs><g/><clipPath id="f3556c7d4f"><path d="M 1.867188 51.917969 L 12.863281 51.917969 L 12.863281 55.339844 L 1.867188 55.339844 Z M 1.867188 51.917969 " clip-rule="nonzero"/></clipPath></defs><g fill="#2e2e2e" fill-opacity="1"><g transform="translate(-0.566331, 44.84662)"><g><path d="M 31.0625 0 L 25.078125 0 L 10.96875 -19.9375 L 16.328125 -19.9375 C 17.703125 -19.9375 18.921875 -20.03125 19.984375 -20.21875 C 21.015625 -20.363281 21.816406 -20.550781 22.390625 -20.78125 C 23.566406 -21.320312 24.5 -22.101562 25.1875 -23.125 C 25.875 -24.113281 26.21875 -25.144531 26.21875 -26.21875 C 26.21875 -27.28125 25.894531 -28.285156 25.25 -29.234375 C 24.59375 -30.148438 23.65625 -30.914062 22.4375 -31.53125 C 21.21875 -32.09375 19.8125 -32.375 18.21875 -32.375 L 9.59375 -32.375 L 9.703125 0 L 4.859375 0 L 4.859375 -37.171875 L 18.21875 -37.171875 C 20.007812 -37.171875 21.6875 -36.890625 23.25 -36.328125 C 24.800781 -35.753906 26.171875 -34.929688 27.359375 -33.859375 C 28.492188 -32.835938 29.390625 -31.660156 30.046875 -30.328125 C 30.648438 -28.992188 30.953125 -27.625 30.953125 -26.21875 C 30.953125 -23.96875 30.265625 -21.945312 28.890625 -20.15625 C 27.753906 -18.632812 26.210938 -17.398438 24.265625 -16.453125 C 22.785156 -15.910156 21.472656 -15.640625 20.328125 -15.640625 Z M 31.0625 0 "/></g></g></g><g fill="#2e2e2e" fill-opacity="1"><g transform="translate(29.983559, 44.84662)"><g><path d="M 19.125 -18.625 L 34.15625 0 L 27.984375 0 L 16.21875 -14.5625 L 4.859375 0.90625 L 4.859375 -37.171875 L 9.703125 -37.171875 L 9.703125 -13.703125 L 26.84375 -37.171875 L 32.71875 -37.171875 Z M 19.125 -18.625 "/></g></g></g><g fill="#2e2e2e" fill-opacity="1"><g transform="translate(63.045979, 44.84662)"><g><path d="M 6.21875 0 C 5.570312 0 5.019531 -0.25 4.5625 -0.75 C 4.113281 -1.195312 3.890625 -1.75 3.890625 -2.40625 C 3.890625 -3.050781 4.132812 -3.601562 4.625 -4.0625 C 5.082031 -4.507812 5.613281 -4.734375 6.21875 -4.734375 C 6.875 -4.734375 7.445312 -4.507812 7.9375 -4.0625 C 8.394531 -3.5625 8.625 -3.007812 8.625 -2.40625 C 8.625 -1.75 8.394531 -1.195312 7.9375 -0.75 C 7.445312 -0.25 6.875 0 6.21875 0 Z M 6.21875 0 "/></g></g></g><g clip-path="url(#f3556c7d4f)"><path fill="#2e2e2e" d="M 1.867188 51.917969 L 12.871094 51.917969 L 12.871094 55.339844 L 1.867188 55.339844 Z M 1.867188 51.917969 " fill-opacity="1" fill-rule="nonzero"/></g><g fill="#2e2e2e" fill-opacity="1"><g transform="translate(15.952274, 55.05887)"><g><path d="M 0.40625 0 L 0.40625 -3.4375 L 1.765625 -3.4375 C 2.128906 -3.4375 2.445312 -3.363281 2.71875 -3.21875 C 2.988281 -3.070312 3.195312 -2.867188 3.34375 -2.609375 C 3.5 -2.359375 3.578125 -2.0625 3.578125 -1.71875 C 3.578125 -1.375 3.5 -1.070312 3.34375 -0.8125 C 3.195312 -0.5625 2.988281 -0.363281 2.71875 -0.21875 C 2.445312 -0.0703125 2.128906 0 1.765625 0 Z M 1.1875 -0.71875 L 1.75 -0.71875 C 1.957031 -0.71875 2.132812 -0.757812 2.28125 -0.84375 C 2.4375 -0.925781 2.554688 -1.039062 2.640625 -1.1875 C 2.734375 -1.34375 2.78125 -1.519531 2.78125 -1.71875 C 2.78125 -1.914062 2.734375 -2.085938 2.640625 -2.234375 C 2.554688 -2.390625 2.4375 -2.507812 2.28125 -2.59375 C 2.132812 -2.675781 1.957031 -2.71875 1.75 -2.71875 L 1.1875 -2.71875 Z M 1.1875 -0.71875 "/></g></g></g><g fill="#2e2e2e" fill-opacity="1"><g transform="translate(20.926491, 55.05887)"><g><path d="M 0.40625 0 L 0.40625 -3.4375 L 2.671875 -3.4375 L 2.671875 -2.78125 L 1.1875 -2.78125 L 1.1875 -2.0625 L 2.53125 -2.0625 L 2.53125 -1.40625 L 1.1875 -1.40625 L 1.1875 -0.65625 L 2.71875 -0.65625 L 2.71875 0 Z M 0.40625 0 "/></g></g></g><g fill="#2e2e2e" fill-opacity="1"><g transform="translate(25.087187, 55.05887)"><g><path d="M 1.609375 0.0625 C 1.316406 0.0625 1.066406 0.015625 0.859375 -0.078125 C 0.648438 -0.171875 0.488281 -0.300781 0.375 -0.46875 C 0.269531 -0.644531 0.21875 -0.851562 0.21875 -1.09375 L 0.984375 -1.09375 C 0.984375 -0.925781 1.035156 -0.796875 1.140625 -0.703125 C 1.253906 -0.617188 1.410156 -0.578125 1.609375 -0.578125 C 1.765625 -0.578125 1.890625 -0.609375 1.984375 -0.671875 C 2.085938 -0.734375 2.140625 -0.820312 2.140625 -0.9375 C 2.140625 -1.0625 2.082031 -1.160156 1.96875 -1.234375 C 1.851562 -1.304688 1.671875 -1.367188 1.421875 -1.421875 C 1.023438 -1.503906 0.726562 -1.632812 0.53125 -1.8125 C 0.34375 -1.988281 0.25 -2.210938 0.25 -2.484375 C 0.25 -2.796875 0.363281 -3.039062 0.59375 -3.21875 C 0.820312 -3.40625 1.132812 -3.5 1.53125 -3.5 C 1.800781 -3.5 2.035156 -3.453125 2.234375 -3.359375 C 2.429688 -3.265625 2.582031 -3.132812 2.6875 -2.96875 C 2.800781 -2.800781 2.859375 -2.601562 2.859375 -2.375 L 2.109375 -2.375 C 2.109375 -2.519531 2.054688 -2.632812 1.953125 -2.71875 C 1.859375 -2.8125 1.71875 -2.859375 1.53125 -2.859375 C 1.375 -2.859375 1.242188 -2.828125 1.140625 -2.765625 C 1.046875 -2.703125 1 -2.613281 1 -2.5 C 1 -2.394531 1.050781 -2.304688 1.15625 -2.234375 C 1.257812 -2.160156 1.445312 -2.09375 1.71875 -2.03125 C 2.144531 -1.9375 2.453125 -1.800781 2.640625 -1.625 C 2.828125 -1.457031 2.921875 -1.238281 2.921875 -0.96875 C 2.921875 -0.644531 2.800781 -0.390625 2.5625 -0.203125 C 2.332031 -0.0234375 2.015625 0.0625 1.609375 0.0625 Z M 1.609375 0.0625 "/></g></g></g><g fill="#2e2e2e" fill-opacity="1"><g transform="translate(29.419406, 55.05887)"><g><path d="M 0.40625 0 L 0.40625 -3.4375 L 1.1875 -3.4375 L 1.1875 0 Z M 0.40625 0 "/></g></g></g><g fill="#2e2e2e" fill-opacity="1"><g transform="translate(32.212804, 55.05887)"><g><path d="M 2.015625 0.0625 C 1.660156 0.0625 1.347656 -0.0078125 1.078125 -0.15625 C 0.804688 -0.3125 0.59375 -0.519531 0.4375 -0.78125 C 0.289062 -1.050781 0.21875 -1.363281 0.21875 -1.71875 C 0.21875 -2.0625 0.289062 -2.367188 0.4375 -2.640625 C 0.59375 -2.910156 0.804688 -3.117188 1.078125 -3.265625 C 1.347656 -3.421875 1.65625 -3.5 2 -3.5 C 2.269531 -3.5 2.523438 -3.445312 2.765625 -3.34375 C 3.003906 -3.25 3.203125 -3.113281 3.359375 -2.9375 C 3.523438 -2.757812 3.644531 -2.550781 3.71875 -2.3125 L 2.875 -2.3125 C 2.789062 -2.457031 2.671875 -2.570312 2.515625 -2.65625 C 2.367188 -2.738281 2.203125 -2.78125 2.015625 -2.78125 C 1.816406 -2.78125 1.640625 -2.734375 1.484375 -2.640625 C 1.328125 -2.554688 1.203125 -2.429688 1.109375 -2.265625 C 1.023438 -2.109375 0.984375 -1.925781 0.984375 -1.71875 C 0.984375 -1.507812 1.023438 -1.320312 1.109375 -1.15625 C 1.203125 -1 1.320312 -0.875 1.46875 -0.78125 C 1.625 -0.6875 1.804688 -0.640625 2.015625 -0.640625 C 2.273438 -0.640625 2.488281 -0.703125 2.65625 -0.828125 C 2.820312 -0.960938 2.925781 -1.132812 2.96875 -1.34375 L 1.859375 -1.34375 L 1.859375 -1.953125 L 3.796875 -1.953125 C 3.816406 -1.648438 3.785156 -1.375 3.703125 -1.125 C 3.628906 -0.882812 3.515625 -0.671875 3.359375 -0.484375 C 3.203125 -0.304688 3.007812 -0.171875 2.78125 -0.078125 C 2.550781 0.015625 2.296875 0.0625 2.015625 0.0625 Z M 2.015625 0.0625 "/></g></g></g><g fill="#2e2e2e" fill-opacity="1"><g transform="translate(37.402651, 55.05887)"><g><path d="M 0.40625 0 L 0.40625 -3.4375 L 1.078125 -3.4375 L 2.59375 -1.34375 L 2.59375 -3.4375 L 3.359375 -3.4375 L 3.359375 0 L 2.703125 0 L 1.1875 -2.109375 L 1.1875 0 Z M 0.40625 0 "/></g></g></g><g fill="#2e2e2e" fill-opacity="1"><g transform="translate(42.367066, 55.05887)"><g/></g></g><g fill="#2e2e2e" fill-opacity="1"><g transform="translate(44.7096, 55.05887)"><g><path d="M 1.609375 0.0625 C 1.316406 0.0625 1.066406 0.015625 0.859375 -0.078125 C 0.648438 -0.171875 0.488281 -0.300781 0.375 -0.46875 C 0.269531 -0.644531 0.21875 -0.851562 0.21875 -1.09375 L 0.984375 -1.09375 C 0.984375 -0.925781 1.035156 -0.796875 1.140625 -0.703125 C 1.253906 -0.617188 1.410156 -0.578125 1.609375 -0.578125 C 1.765625 -0.578125 1.890625 -0.609375 1.984375 -0.671875 C 2.085938 -0.734375 2.140625 -0.820312 2.140625 -0.9375 C 2.140625 -1.0625 2.082031 -1.160156 1.96875 -1.234375 C 1.851562 -1.304688 1.671875 -1.367188 1.421875 -1.421875 C 1.023438 -1.503906 0.726562 -1.632812 0.53125 -1.8125 C 0.34375 -1.988281 0.25 -2.210938 0.25 -2.484375 C 0.25 -2.796875 0.363281 -3.039062 0.59375 -3.21875 C 0.820312 -3.40625 1.132812 -3.5 1.53125 -3.5 C 1.800781 -3.5 2.035156 -3.453125 2.234375 -3.359375 C 2.429688 -3.265625 2.582031 -3.132812 2.6875 -2.96875 C 2.800781 -2.800781 2.859375 -2.601562 2.859375 -2.375 L 2.109375 -2.375 C 2.109375 -2.519531 2.054688 -2.632812 1.953125 -2.71875 C 1.859375 -2.8125 1.71875 -2.859375 1.53125 -2.859375 C 1.375 -2.859375 1.242188 -2.828125 1.140625 -2.765625 C 1.046875 -2.703125 1 -2.613281 1 -2.5 C 1 -2.394531 1.050781 -2.304688 1.15625 -2.234375 C 1.257812 -2.160156 1.445312 -2.09375 1.71875 -2.03125 C 2.144531 -1.9375 2.453125 -1.800781 2.640625 -1.625 C 2.828125 -1.457031 2.921875 -1.238281 2.921875 -0.96875 C 2.921875 -0.644531 2.800781 -0.390625 2.5625 -0.203125 C 2.332031 -0.0234375 2.015625 0.0625 1.609375 0.0625 Z M 1.609375 0.0625 "/></g></g></g><g fill="#2e2e2e" fill-opacity="1"><g transform="translate(49.041819, 55.05887)"><g><path d="M 1.234375 0 L 1.234375 -2.703125 L 0.140625 -2.703125 L 0.140625 -3.4375 L 3.109375 -3.4375 L 3.109375 -2.703125 L 2.015625 -2.703125 L 2.015625 0 Z M 1.234375 0 "/></g></g></g><g fill="#2e2e2e" fill-opacity="1"><g transform="translate(53.481856, 55.05887)"><g><path d="M 1.8125 0.0625 C 1.519531 0.0625 1.265625 0.00390625 1.046875 -0.109375 C 0.828125 -0.234375 0.660156 -0.40625 0.546875 -0.625 C 0.429688 -0.84375 0.375 -1.101562 0.375 -1.40625 L 0.375 -3.4375 L 1.15625 -3.4375 L 1.15625 -1.46875 C 1.15625 -0.9375 1.375 -0.671875 1.8125 -0.671875 C 2.25 -0.671875 2.46875 -0.9375 2.46875 -1.46875 L 2.46875 -3.4375 L 3.25 -3.4375 L 3.25 -1.40625 C 3.25 -1.101562 3.191406 -0.84375 3.078125 -0.625 C 2.960938 -0.40625 2.796875 -0.234375 2.578125 -0.109375 C 2.367188 0.00390625 2.113281 0.0625 1.8125 0.0625 Z M 1.8125 0.0625 "/></g></g></g><g fill="#2e2e2e" fill-opacity="1"><g transform="translate(58.29925, 55.05887)"><g><path d="M 0.40625 0 L 0.40625 -3.4375 L 1.765625 -3.4375 C 2.128906 -3.4375 2.445312 -3.363281 2.71875 -3.21875 C 2.988281 -3.070312 3.195312 -2.867188 3.34375 -2.609375 C 3.5 -2.359375 3.578125 -2.0625 3.578125 -1.71875 C 3.578125 -1.375 3.5 -1.070312 3.34375 -0.8125 C 3.195312 -0.5625 2.988281 -0.363281 2.71875 -0.21875 C 2.445312 -0.0703125 2.128906 0 1.765625 0 Z M 1.1875 -0.71875 L 1.75 -0.71875 C 1.957031 -0.71875 2.132812 -0.757812 2.28125 -0.84375 C 2.4375 -0.925781 2.554688 -1.039062 2.640625 -1.1875 C 2.734375 -1.34375 2.78125 -1.519531 2.78125 -1.71875 C 2.78125 -1.914062 2.734375 -2.085938 2.640625 -2.234375 C 2.554688 -2.390625 2.4375 -2.507812 2.28125 -2.59375 C 2.132812 -2.675781 1.957031 -2.71875 1.75 -2.71875 L 1.1875 -2.71875 Z M 1.1875 -0.71875 "/></g></g></g><g fill="#2e2e2e" fill-opacity="1"><g transform="translate(63.273467, 55.05887)"><g><path d="M 0.40625 0 L 0.40625 -3.4375 L 1.1875 -3.4375 L 1.1875 0 Z M 0.40625 0 "/></g></g></g><g fill="#2e2e2e" fill-opacity="1"><g transform="translate(66.066865, 55.05887)"><g><path d="M 2.046875 0.0625 C 1.679688 0.0625 1.359375 -0.0078125 1.078125 -0.15625 C 0.804688 -0.3125 0.59375 -0.519531 0.4375 -0.78125 C 0.289062 -1.050781 0.21875 -1.363281 0.21875 -1.71875 C 0.21875 -2.0625 0.289062 -2.367188 0.4375 -2.640625 C 0.59375 -2.910156 0.804688 -3.117188 1.078125 -3.265625 C 1.359375 -3.421875 1.679688 -3.5 2.046875 -3.5 C 2.398438 -3.5 2.710938 -3.421875 2.984375 -3.265625 C 3.265625 -3.117188 3.484375 -2.910156 3.640625 -2.640625 C 3.796875 -2.367188 3.875 -2.0625 3.875 -1.71875 C 3.875 -1.363281 3.796875 -1.050781 3.640625 -0.78125 C 3.484375 -0.519531 3.265625 -0.3125 2.984375 -0.15625 C 2.710938 -0.0078125 2.398438 0.0625 2.046875 0.0625 Z M 1 -1.71875 C 1 -1.507812 1.039062 -1.328125 1.125 -1.171875 C 1.21875 -1.015625 1.34375 -0.890625 1.5 -0.796875 C 1.65625 -0.710938 1.835938 -0.671875 2.046875 -0.671875 C 2.242188 -0.671875 2.421875 -0.710938 2.578125 -0.796875 C 2.734375 -0.890625 2.851562 -1.015625 2.9375 -1.171875 C 3.03125 -1.328125 3.078125 -1.507812 3.078125 -1.71875 C 3.078125 -1.925781 3.03125 -2.109375 2.9375 -2.265625 C 2.851562 -2.421875 2.734375 -2.539062 2.578125 -2.625 C 2.421875 -2.71875 2.242188 -2.765625 2.046875 -2.765625 C 1.835938 -2.765625 1.65625 -2.71875 1.5 -2.625 C 1.34375 -2.539062 1.21875 -2.421875 1.125 -2.265625 C 1.039062 -2.109375 1 -1.925781 1 -1.71875 Z M 1 -1.71875 "/></g></g></g></svg>