<svg width="28" height="25" viewBox="0 0 28 25" fill="none" xmlns="http://www.w3.org/2000/svg">
<path d="M6.70973 0.833907C3.95837 2.01416 0.617434 6.01392 0.158874 8.70228C-1.1513 15.3904 5.79261 22.3408 15.4224 24.1768C20.0735 25.0292 23.1524 24.3735 25.7727 21.8818C27.6725 20.0459 28 19.3246 28 16.7018C28 10.9317 24.004 6.53848 18.2392 5.94835C11.6884 5.35822 8.93702 8.89899 11.6884 14.538C14.1122 19.5213 16.9291 19.3902 15.5534 14.4069C15.1603 12.8988 15.0293 11.3906 15.2258 11.0628C16.405 9.16127 22.3008 11.7841 23.4144 14.7347C24.3315 17.0296 24.266 17.4231 22.7593 18.9312C18.8943 22.7998 5.92362 17.9476 4.15489 11.9152C3.49981 9.81697 5.33405 6.01392 7.82337 4.50582C9.5921 3.39113 10.9678 3.19442 15.7499 3.25999C18.8943 3.32556 21.6457 3.19442 21.8422 2.99771C24.135 0.702769 11.1643 -1.13319 6.70973 0.833907Z" fill="black"/>
</svg>
